<svg width="106" height="101.577" xmlns="http://www.w3.org/2000/svg">

 <g>
  <title>Layer 1</title>
  <path fill-rule="evenodd" fill="#ef7c00" d="m2.09202,51.789a50.789,50.789 0 1 1 50.789,50.789a50.789,50.789 0 0 1 -50.789,-50.789z" data-name="Path 5540" id="Path_5540"/>
  <path fill-rule="evenodd" fill="#fff" d="m5.76202,51.788a47.37,47.37 0 1 1 0,0.005l0,-0.005z" data-name="Path 5541" id="Path_5541"/>
  <path fill-rule="evenodd" fill="#181716" d="m11.96502,51.788a40.916,40.916 0 1 1 40.911,40.9a40.916,40.916 0 0 1 -40.911,-40.9z" data-name="Path 5542" id="Path_5542"/>
  <path fill-rule="evenodd" fill="#ef7c00" d="m9.43202,51.788a43.307,43.307 0 1 1 0,0.005l0,-0.005z" data-name="Path 5543" id="Path_5543"/>
  <path fill-rule="evenodd" fill="#fff" d="m60.83202,14.559l-12.92,0l0,22.357l3.654,0l0,-10.241l7.42,0l0,-3l-7.42,0l0,-6.071l8.815,0l0.451,-3.045z" data-name="Path 5544" id="Path_5544"/>
  <path fill-rule="evenodd" fill="#fff" d="m60.46102,82.431l0,-15.722l-3.638,0l0,14.761c0,2.917 -1.3,4.471 -3.975,4.471s-3.894,-1.106 -3.894,-4.471l0,-14.761l-3.67,0l0,15.834c0,3.526 1.811,6.507 7.565,6.507c4.824,-0.08 7.612,-2.58 7.612,-6.619z" data-name="Path 5545" id="Path_5545"/>
  <path fill-rule="evenodd" fill="#fff" d="m61.74302,40.602l-2.18,10.337c-0.753,3.606 -1.17,7.132 -1.17,7.132l-0.1,0s-0.621,-4.179 -1.202,-6.879l-2.271,-10.59l-3.829,0l-2.278,10.59c-0.577,2.692 -1.2,6.875 -1.2,6.875l-0.1,0s-0.417,-3.526 -1.17,-7.132l-2.2,-10.337l-3.952,0l5.225,22.357l4.275,0l2.132,-10.417c0.529,-2.692 1.106,-6.315 1.106,-6.315l0,0s0.577,3.622 1.106,6.315l2.132,10.417l4.279,0l5.225,-22.357l-3.828,0.004z" data-name="Path 5546" id="Path_5546"/>
 </g>
</svg>